name D:\school\WTK\thesis\model\3dpredictsim\Results\Final\Fal_s1_bCst_PF_Song2011_ls150_MT_nl_Song2011_MTP_Mu0_ig1_v10.mot
datacolumns 128
datarows 4
range 1.87522093 1.91272534
endheader
time	pelvis_tilt	pelvis_list	pelvis_rotation	pelvis_tx	pelvis_ty	pelvis_tz	hip_flexion_l	hip_adduction_l	hip_rotation_l	hip_flexion_r	hip_adduction_r	hip_rotation_r	knee_angle_l	knee_angle_r	ankle_angle_l	ankle_angle_r	subtalar_angle_l	subtalar_angle_r	tmt_angle_l	tmt_angle_r	mtp_angle_l	mtp_angle_r	lumbar_extension	lumbar_bending	lumbar_rotation	arm_flex_l	arm_add_l	arm_rot_l	arm_flex_r	arm_add_r	arm_rot_r	elbow_flex_l	elbow_flex_r	pro_sup_l	pro_sup_r	glut_med1_l/activation	glut_med2_l/activation	glut_med3_l/activation	glut_min1_l/activation	glut_min2_l/activation	glut_min3_l/activation	semimem_l/activation	semiten_l/activation	bifemlh_l/activation	bifemsh_l/activation	sar_l/activation	add_long_l/activation	add_brev_l/activation	add_mag1_l/activation	add_mag2_l/activation	add_mag3_l/activation	tfl_l/activation	pect_l/activation	grac_l/activation	glut_max1_l/activation	glut_max2_l/activation	glut_max3_l/activation	iliacus_l/activation	psoas_l/activation	quad_fem_l/activation	gem_l/activation	peri_l/activation	rect_fem_l/activation	vas_med_l/activation	vas_int_l/activation	vas_lat_l/activation	med_gas_l/activation	lat_gas_l/activation	soleus_l/activation	tib_post_l/activation	flex_dig_l/activation	flex_hal_l/activation	tib_ant_l/activation	per_brev_l/activation	per_long_l/activation	per_tert_l/activation	ext_dig_l/activation	ext_hal_l/activation	ercspn_l/activation	intobl_l/activation	extobl_l/activation	glut_med1_r/activation	glut_med2_r/activation	glut_med3_r/activation	glut_min1_r/activation	glut_min2_r/activation	glut_min3_r/activation	semimem_r/activation	semiten_r/activation	bifemlh_r/activation	bifemsh_r/activation	sar_r/activation	add_long_r/activation	add_brev_r/activation	add_mag1_r/activation	add_mag2_r/activation	add_mag3_r/activation	tfl_r/activation	pect_r/activation	grac_r/activation	glut_max1_r/activation	glut_max2_r/activation	glut_max3_r/activation	iliacus_r/activation	psoas_r/activation	quad_fem_r/activation	gem_r/activation	peri_r/activation	rect_fem_r/activation	vas_med_r/activation	vas_int_r/activation	vas_lat_r/activation	med_gas_r/activation	lat_gas_r/activation	soleus_r/activation	tib_post_r/activation	flex_dig_r/activation	flex_hal_r/activation	tib_ant_r/activation	per_brev_r/activation	per_long_r/activation	per_tert_r/activation	ext_dig_r/activation	ext_hal_r/activation	ercspn_r/activation	intobl_r/activation	extobl_r/activation	
          1.87522093	         -2.92310562	          2.52955410	         -4.06778287	          1.87522093	          0.92794684	          0.00238239	         24.30042227	          4.73396923	          1.12322763	        -13.58694188	          0.14180487	          6.81521430	         -3.83666489	         -6.64049236	          0.45263507	          0.47843375	         -7.95405463	          3.14119807	         -0.25355340	          2.95401726	         22.78221785	         24.07715824	         -1.11270834	         -0.82010961	          2.26660006	         -4.53972728	        -13.45443793	          7.21932837	          4.53388575	        -13.44981324	         17.12493623	         15.20538539	         30.88922560	         86.51662706	         86.51662706	          0.12635769	          0.05000041	          0.06041766	          0.05000015	          0.05000021	          0.05000092	          0.05982993	          0.06041793	          0.06041690	          0.05000024	          0.05000054	          0.09113492	          0.25081752	          0.22507773	          0.17766748	          0.12034974	          0.05000117	          0.05000311	          0.06042032	          0.06041849	          0.07221170	          0.10021135	          0.05000010	          0.05000013	          0.17304850	          0.05000058	          0.05000029	          0.06951207	          0.08739783	          0.08894925	          0.07064135	          0.05000010	          0.05000022	          0.05713799	          0.05000079	          0.05000087	          0.05000083	          0.41931921	          0.24543408	          0.18837881	          0.06086457	          0.41614632	          0.09398696	          0.05735683	          0.11996727	          0.12886755	          0.46141689	          0.15564678	          0.10031854	          0.38451348	          0.26627573	          0.14435371	          0.05000120	          0.05000040	          0.05000026	          0.05006792	          0.10801500	          0.05000017	          0.05000019	          0.05000034	          0.05000087	          0.05000050	          0.28790822	          0.05000083	          0.05000108	          0.05014923	          0.05000526	          0.05000129	          0.33987885	          0.49157866	          0.05000131	          0.05016310	          0.07300732	          0.13835653	          0.05000036	          0.05000036	          0.05000034	          0.27720387	          0.37905700	          0.33349109	          0.30673698	          0.24292335	          0.29198954	          0.05000010	          0.05000037	          0.05367841	          0.05000030	          0.05000012	          0.05000051	          0.05000001	          0.05000003	          0.05000006	
          1.88772240	         -2.92906568	          2.58801539	         -4.32436303	          1.89038060	          0.92706072	          0.00212934	         23.36305772	          5.02917963	          1.40405999	        -13.55658304	         -0.05156267	          6.48303677	         -3.05116981	         -8.31414823	         -0.05438344	          0.17765143	         -8.17293559	          3.94622390	         -0.24052703	          2.72004193	         22.86933231	         25.49548854	         -0.92957853	         -0.98493377	          2.35750257	         -5.52905373	        -13.45631027	          7.08498102	          4.38476916	        -13.45175830	         17.47391925	         14.76506085	         32.24639285	         86.51662706	         86.51662706	          0.10456981	          0.05000177	          0.05000011	          0.06041828	          0.06041783	          0.05000064	          0.05000008	          0.05000029	          0.05000028	          0.05000008	          0.05000029	          0.10664095	          0.23952023	          0.22550510	          0.21628073	          0.12429258	          0.05000011	          0.07300264	          0.05000283	          0.05000069	          0.05976030	          0.12783638	          0.05000017	          0.05000013	          0.29013243	          0.14623796	          0.13254367	          0.09276421	          0.18918020	          0.19155272	          0.14611564	          0.05000001	          0.05000003	          0.05000000	          0.05000120	          0.05000110	          0.05000090	          0.47222459	          0.20311426	          0.19175340	          0.22441103	          0.43093866	          0.09950011	          0.05176038	          0.09928127	          0.10664686	          0.46235847	          0.12880856	          0.08302060	          0.31821254	          0.22036184	          0.11946281	          0.05000088	          0.05000028	          0.05000028	          0.05000033	          0.08939040	          0.05000039	          0.05000059	          0.05000066	          0.05000148	          0.05000074	          0.23826432	          0.05000284	          0.05000102	          0.05000144	          0.05000101	          0.05000076	          0.28127350	          0.41995588	          0.05000028	          0.05000154	          0.06041880	          0.14240474	          0.05000191	          0.05000206	          0.05000219	          0.24276250	          0.34780762	          0.32008008	          0.29768578	          0.25646491	          0.30573521	          0.05000005	          0.05000196	          0.06753741	          0.05000039	          0.05000010	          0.05000037	          0.05000004	          0.06300302	          0.05000003	
          1.90022387	         -2.93001466	          2.64319151	         -4.55897309	          1.90590613	          0.92623079	          0.00188491	         22.35901436	          5.25610066	          1.71502726	        -13.47474207	         -0.25279518	          6.15608684	         -2.76324894	        -10.09474157	         -0.63550078	         -0.25770256	         -8.40656524	          4.76111975	         -0.31938328	          2.40875640	         23.02054536	         27.00995499	         -0.72272853	         -1.15730755	          2.43688204	         -6.57970208	        -13.46145711	          6.99558292	          4.14019712	        -13.45114713	         17.73593035	         14.42851479	         33.61344640	         86.51662706	         86.51662706	          0.19290833	          0.05000012	          0.05000253	          0.05000039	          0.05000016	          0.05000034	          0.06141579	          0.05000099	          0.05485010	          0.05000011	          0.05000033	          0.08825287	          0.19821968	          0.18662143	          0.17898757	          0.10286101	          0.05000076	          0.06041947	          0.07310013	          0.07613803	          0.09124012	          0.10579356	          0.05000014	          0.05000017	          0.24010484	          0.12102218	          0.12901965	          0.07676884	          0.15655986	          0.15852329	          0.12092096	          0.05746698	          0.05831239	          0.06041771	          0.05000008	          0.05000063	          0.05000064	          0.47576908	          0.30050005	          0.19472564	          0.19771718	          0.45255697	          0.08234329	          0.05000001	          0.10280013	          0.08825769	          0.43021905	          0.10659805	          0.06870535	          0.26334350	          0.18236484	          0.09886383	          0.05000162	          0.05000052	          0.05000037	          0.05000023	          0.07397714	          0.05000031	          0.05000044	          0.05000102	          0.05000231	          0.05001980	          0.19718045	          0.05000074	          0.05000093	          0.05010151	          0.05010530	          0.05001731	          0.25374396	          0.41614973	          0.05000076	          0.05000126	          0.05000083	          0.11784992	          0.07304885	          0.06041979	          0.06769200	          0.20090287	          0.29443369	          0.29848525	          0.27238232	          0.23918632	          0.29463710	          0.05000009	          0.05000016	          0.08807152	          0.05000023	          0.05000010	          0.05000045	          0.05000005	          0.05223247	          0.05416017	
          1.91272534	         -2.92703944	          2.70138208	         -4.76387518	          1.92168908	          0.92549748	          0.00163088	         21.27922774	          5.42838404	          2.03641188	        -13.31494189	         -0.46277448	          5.84186590	         -2.53648053	        -12.00931496	         -1.21142989	         -0.83321478	         -8.64449438	          5.56125332	         -0.31340545	          2.00245784	         23.27901849	         28.59962244	         -0.50128396	         -1.34347596	          2.50656845	         -7.66273124	        -13.46921298	          6.94164234	          3.81604711	        -13.45003123	         17.93023308	         14.18471834	         34.97242436	         86.51662706	         86.51662706	          0.26808061	          0.20224253	          0.21467546	          0.10734199	          0.14250127	          0.13554141	          0.05579840	          0.07268726	          0.05319313	          0.06082098	          0.05000411	          0.07303541	          0.16404057	          0.15444231	          0.14812484	          0.08600869	          0.05000050	          0.05000218	          0.06049588	          0.13901711	          0.09203792	          0.08755162	          0.05000021	          0.05000022	          0.19870348	          0.10015447	          0.11786481	          0.06353157	          0.12956425	          0.13118913	          0.10007058	          0.05000006	          0.05000014	          0.05000002	          0.05000015	          0.05000079	          0.05000104	          0.56031849	          0.32361454	          0.20781519	          0.32462504	          0.46744444	          0.15702496	          0.06261770	          0.10664503	          0.07303938	          0.41327666	          0.08821732	          0.05685850	          0.31541458	          0.15091969	          0.08181675	          0.05000150	          0.05000027	          0.05000022	          0.05000027	          0.06122466	          0.05449797	          0.05000151	          0.05000112	          0.05000206	          0.05000118	          0.16318080	          0.05006088	          0.05000101	          0.05000150	          0.05000099	          0.05000075	          0.22017222	          0.38784763	          0.05000019	          0.05000102	          0.05000063	          0.12760207	          0.06045400	          0.05000242	          0.12165397	          0.16626108	          0.24366436	          0.24874716	          0.24070967	          0.20797248	          0.27465999	          0.05000003	          0.05345118	          0.11102831	          0.05000018	          0.05000004	          0.05000019	          0.05000003	          0.05000002	          0.05000003	
